# xmcd
#
# Track frame offsets:
#	150
#	18446
#	37621
#	49986
#	59771
#	80333
#	93297
#	108619
#	125376
#	140151
#	154360
#	173093
#	184597
#	195994
#	211512
#	227326
#	240753
#	253275
#
# Disc length: 3697 seconds
#
# Revision: 1
# Processed by: cddbd v1.5.2PL0 Copyright (c) Steve Scherf et al.
# Submitted via: audiograbber 1.83.01
#
DISCID=e60e6f12
DTITLE=Various Artist - Ohrwürmer - Cowboy and Western Hits - CD1
DYEAR=2017
DGENRE=Country
TTITLE0=Dave Dudley - Cowboy You're America
TTITLE1=Nashville Chicks - Cowboy Take Me Away
TTITLE2=Clint Eastwood - Santa Fe Trail
TTITLE3=Johnny Cash - Rock Island Line
TTITLE4=John Denver - Rocky Mountain High (Live)
TTITLE5=Tennessee Ernie Ford - The Ballad Of Davy Crockett
TTITLE6=Freddy Fender - Cowboy Cumbia
TTITLE7=Roy Head - Night Time In The City
TTITLE8=Merle Haggard - A Friend In California
TTITLE9=Razzy Balley - Too Old To Play Cowboy
TTITLE10=Marty Robbins - El Paso City
TTITLE11=Don Williams - Follow Me Back To Louisville
TTITLE12=Bobby Bare - That's How I Got To Memphis
TTITLE13=The Bellamy Brothers - Cowboy Beat
TTITLE14=Boxcar Willie - Red River Valley
TTITLE15=Glen Campbell - Rhinestone Cowboy
TTITLE16=John Anderson - Stop In Nevada
TTITLE17=Commander Cody - Going To New Jersey (Live)
EXTD=
EXTT0=
EXTT1=
EXTT2=
EXTT3=
EXTT4=
EXTT5=
EXTT6=
EXTT7=
EXTT8=
EXTT9=
EXTT10=
EXTT11=
EXTT12=
EXTT13=
EXTT14=
EXTT15=
EXTT16=
EXTT17=
PLAYORDER=
